<?xml version="1.0" encoding="UTF-8" standalone="no"?>
<!DOCTYPE svg PUBLIC "-//W3C//DTD SVG 1.1//EN"
 "http://www.w3.org/Graphics/SVG/1.1/DTD/svg11.dtd">
<!-- Generated by graphviz version 2.47.3 (20210619.1520)
 -->
<!-- Title: dependencies Pages: 1 -->
<svg width="594pt" height="250pt"
 viewBox="0.00 0.00 594.00 249.80" xmlns="http://www.w3.org/2000/svg" xmlns:xlink="http://www.w3.org/1999/xlink">
<g id="graph0" class="graph" transform="scale(1 1) rotate(0) translate(4 245.8)">
<title>dependencies</title>
<polygon fill="white" stroke="transparent" points="-4,4 -4,-245.8 590,-245.8 590,4 -4,4"/>
<text text-anchor="middle" x="293" y="-8.2" font-family="sans-serif" font-size="14.00">dependencies</text>
<g id="clust1" class="cluster">
<title>cluster_AppModule</title>
<polygon fill="none" stroke="black" stroke-dasharray="1,5" points="197,-108.8 197,-233.8 315,-233.8 315,-108.8 197,-108.8"/>
</g>
<g id="clust3" class="cluster">
<title>cluster_AppModule_imports</title>
<polygon fill="none" stroke="black" points="205,-116.8 205,-168.8 307,-168.8 307,-116.8 205,-116.8"/>
</g>
<g id="clust7" class="cluster">
<title>cluster_UserModule</title>
<polygon fill="none" stroke="black" stroke-dasharray="1,5" points="8,-32.8 8,-100.8 578,-100.8 578,-32.8 8,-32.8"/>
</g>
<g id="clust12" class="cluster">
<title>cluster_UserModule_providers</title>
<polygon fill="none" stroke="black" points="16,-40.8 16,-92.8 570,-92.8 570,-40.8 16,-40.8"/>
</g>
<!-- UserModule -->
<g id="node1" class="node">
<title>UserModule</title>
<polygon fill="#8dd3c7" stroke="black" points="298.98,-160.8 295.98,-164.8 274.98,-164.8 271.98,-160.8 213.02,-160.8 213.02,-124.8 298.98,-124.8 298.98,-160.8"/>
<text text-anchor="middle" x="256" y="-138.6" font-family="Times,serif" font-size="14.00">UserModule</text>
</g>
<!-- AppModule -->
<g id="node2" class="node">
<title>AppModule</title>
<polygon fill="#8dd3c7" stroke="black" points="297.66,-225.8 294.66,-229.8 273.66,-229.8 270.66,-225.8 214.34,-225.8 214.34,-189.8 297.66,-189.8 297.66,-225.8"/>
<text text-anchor="middle" x="256" y="-203.6" font-family="Times,serif" font-size="14.00">AppModule</text>
</g>
<!-- UserModule&#45;&gt;AppModule -->
<g id="edge1" class="edge">
<title>UserModule&#45;&gt;AppModule</title>
<path fill="none" stroke="black" d="M256,-160.91C256,-160.91 256,-179.79 256,-179.79"/>
<polygon fill="black" stroke="black" points="252.5,-179.79 256,-189.79 259.5,-179.79 252.5,-179.79"/>
</g>
<!-- AccessTokenStrategy -->
<g id="node3" class="node">
<title>AccessTokenStrategy</title>
<ellipse fill="#fdb462" stroke="black" cx="467" cy="-66.8" rx="95.46" ry="18"/>
<text text-anchor="middle" x="467" y="-62.6" font-family="Times,serif" font-size="14.00">AccessTokenStrategy</text>
</g>
<!-- AccessTokenStrategy&#45;&gt;UserModule -->
<g id="edge2" class="edge">
<title>AccessTokenStrategy&#45;&gt;UserModule</title>
<path fill="none" stroke="black" d="M467,-84.81C467,-107.29 467,-142.8 467,-142.8 467,-142.8 309.21,-142.8 309.21,-142.8"/>
<polygon fill="black" stroke="black" points="309.21,-139.3 299.21,-142.8 309.21,-146.3 309.21,-139.3"/>
</g>
<!-- RefreshTokenStrategy -->
<g id="node4" class="node">
<title>RefreshTokenStrategy</title>
<ellipse fill="#fdb462" stroke="black" cx="256" cy="-66.8" rx="97.83" ry="18"/>
<text text-anchor="middle" x="256" y="-62.6" font-family="Times,serif" font-size="14.00">RefreshTokenStrategy</text>
</g>
<!-- RefreshTokenStrategy&#45;&gt;UserModule -->
<g id="edge3" class="edge">
<title>RefreshTokenStrategy&#45;&gt;UserModule</title>
<path fill="none" stroke="black" d="M256,-84.81C256,-84.81 256,-114.65 256,-114.65"/>
<polygon fill="black" stroke="black" points="252.5,-114.65 256,-124.65 259.5,-114.65 252.5,-114.65"/>
</g>
<!-- UserService -->
<g id="node5" class="node">
<title>UserService</title>
<ellipse fill="#fdb462" stroke="black" cx="82" cy="-66.8" rx="58.44" ry="18"/>
<text text-anchor="middle" x="82" y="-62.6" font-family="Times,serif" font-size="14.00">UserService</text>
</g>
<!-- UserService&#45;&gt;UserModule -->
<g id="edge4" class="edge">
<title>UserService&#45;&gt;UserModule</title>
<path fill="none" stroke="black" d="M82,-84.81C82,-107.29 82,-142.8 82,-142.8 82,-142.8 202.99,-142.8 202.99,-142.8"/>
<polygon fill="black" stroke="black" points="202.99,-146.3 212.99,-142.8 202.99,-139.3 202.99,-146.3"/>
</g>
</g>
</svg>
